<svg width="46" height="56" viewBox="0 0 46 56" fill="none" xmlns="http://www.w3.org/2000/svg">
<path d="M11.0002 44.8999L17.7002 41.0999L20.7002 42.7999L21.7002 47.4999L19.9002 52.1999L22.4002 51.2999L25.7002 51.7999L34.9002 44.3999V50.3999L36.2002 47.4999L38.6002 41.7999L39.8002 44.3999L40.6002 42.4999L41.8002 36.8999V32.1999L43.3002 30.6999L42.4002 27.2999L40.6002 21.4999L42.4002 20.8999L37.1002 15.3999L32.3002 10.6999L28.8002 5.9999L24.0002 1.3999L22.6002 2.8999L18.7002 7.7999L14.6002 9.3999L5.4002 4.5999V7.5999L7.9002 14.1999L5.8002 16.9999L4.7002 21.1999L6.30019 22.6999L5.0002 31.3999L0.700195 36.8999L6.30019 42.4999L8.0002 42.7999L11.0002 44.8999Z" fill="#202020"/>
<path d="M24.2998 18.2999C25.0998 17.2999 27.3998 15.5999 30.1998 16.7999C27.7998 16.7999 24.7998 18.2999 24.2998 18.2999Z" fill="#46F6F9"/>
<path d="M33.1998 14.8999L33.8998 19.1999C34.7798 18.2399 36.8665 18.5332 37.7998 18.7999L35.2998 17.2999L33.1998 14.8999Z" fill="#46F6F9"/>
<path d="M33.1998 22.1999C32.5331 21.3999 30.4398 20.4799 27.3998 23.1999C29.6398 22.7199 32.1998 22.3332 33.1998 22.1999Z" fill="#46F6F9"/>
<path d="M30.8998 23.5999C33.0598 22.8799 35.0665 23.6332 35.7998 24.0999H33.8998C34.4598 24.0999 35.3998 25.2332 35.7998 25.7999C36.1665 28.8999 36.6798 34.5199 35.7998 32.1999C34.6998 29.2999 33.8998 24.6999 30.8998 23.5999Z" fill="#46F6F9"/>
<path d="M33.5998 29.4999C32.8998 27.9666 30.2398 25.3599 25.1998 27.1999C28.1998 27.1999 32.7998 28.9999 33.5998 29.4999Z" fill="#46F6F9"/>
<path d="M26.9998 30.5999L30.1998 32.1999H28.0998L30.1998 36.7999C28.8331 37.1666 26.3598 37.6799 27.3998 36.7999C28.4398 35.9199 27.5665 32.2999 26.9998 30.5999Z" fill="#46F6F9"/>
<path d="M31.5998 42.7999C32.7198 41.6799 34.8665 36.3332 35.7998 33.7999L36.1998 34.4999C36.3998 33.9999 36.8798 33.0399 37.1998 33.1999C37.5198 33.3599 37.0665 35.3332 36.7998 36.2999C35.5998 38.4666 32.8798 43.1399 31.5998 44.4999C30.3198 45.8599 30.1331 45.4666 30.1998 45.0999C30.1998 44.7999 30.4798 43.9199 31.5998 42.7999Z" fill="#46F6F9"/>
<path d="M23.4001 43.6L23.8001 39.1C25.3001 39.1 27.3001 41 27.2001 41.6C27.1201 42.08 25.9001 41.8 25.3001 41.6L23.4001 43.6Z" fill="#46F6F9"/>
<path d="M25.7001 37.1L20.6001 36.2C21.4801 35.48 22.8334 35.4333 23.4001 35.5L25.7001 37.1Z" fill="#46F6F9"/>
<path d="M19.6001 52.1999L23.7001 45.5999L24.2001 46.2999L25.3001 44.8999C24.4334 46.9332 22.5201 51.1199 21.8001 51.5999C21.0801 52.0799 20.0334 52.1999 19.6001 52.1999Z" fill="#44FBFE"/>
<path d="M35.2001 43.3C34.6401 43.38 28.1001 48.9334 24.9001 51.7L29.2001 55.2L26.3001 51.7L33.9001 45.3V54.1L38.8001 42.6C38.9668 43.6 39.4001 45.54 39.8001 45.3C40.3001 45 42.4001 39.6 42.4001 39.1C42.4001 38.7 42.6001 35 42.7001 33.2C42.6668 32.9333 42.6601 32.36 42.9001 32.2C43.1402 32.04 43.5335 31.0667 43.7001 30.6H46.0001L43.7001 29.5L43.5001 27.7L45.3001 26.8H43.2001L42.9001 25.1L45.0001 23.9H42.4001L41.6001 21.7H43.5001L42.9001 20.9L40.0001 17.3L35.7001 13C35.1334 12.8333 33.8001 12.1 33.0001 10.5C32.2001 8.9 29.6001 6.36667 28.4001 5.3L23.5001 0.5L17.7001 8.1C17.4668 8.1 16.6801 8.22 15.4001 8.7C14.1201 9.18 12.6667 9.43333 12.1001 9.5L13.0001 10.5V10.9L13.7001 11.2V10.9C14.0334 10.9 14.9401 10.82 15.9001 10.5C14.7801 10.5 14.6335 10.1667 14.7001 10L17.0001 9H19.2001V8.1C20.6335 6.26667 23.6001 2.46 24.0001 1.9C24.3201 2.06 26.6668 5.63333 27.8001 7.4L29.2001 12.1C29.3001 12.7 29.6601 13.94 30.3001 14.1C31.1001 14.3 31.4001 13.4 31.2001 13.3C31.0401 13.22 30.5335 12.7333 30.3001 12.5C30.2001 12 29.9801 10.8 29.9001 10C29.8001 9 28.6001 7.7 28.1001 6.2C29.1401 6.6 30.7335 9.23333 31.4001 10.5V11.7H32.6001L39.8001 18.6L41.3001 20.9L39.3001 20.3C38.9668 20.3333 38.5201 20.5 39.4001 20.9C40.2801 21.3 42.1001 27.5333 42.9001 30.6C42.4001 29.9667 41.2201 28.7 40.5001 28.7C42.2601 30.86 40.9001 38.8667 40.0001 42.6L38.3001 39.6L34.8001 49.1C35.1668 47.1334 35.7601 43.22 35.2001 43.3Z" fill="#44FBFE"/>
<path d="M5.70011 24.4001C5.46011 25.5201 4.53345 29.6668 4.10011 31.6001L5.1001 30.6001L6.9001 24.4001L6.0001 21.9001L4.50011 21.0001C4.73344 20.8668 5.3001 20.1401 5.70011 18.3001C6.10013 16.4601 8.00011 14.6001 8.9001 13.9001C8.76676 13.4334 8.2801 12.3001 7.4001 11.5001C6.8401 11.2601 6.03344 7.46676 5.70011 5.6001L13.3001 8.8001L14.4001 8.1001L4.50011 3.6001V6.0001H4.10011C4.93344 7.76676 6.7601 11.6801 7.4001 13.2001C6.0001 14.9001 4.90011 17.9001 4.10011 19.8001C3.30011 21.7001 4.10011 22.0001 4.50011 22.2001C4.90011 22.4001 6.00011 23.0001 5.70011 24.4001Z" fill="#44FBFE"/>
<path d="M7.8001 9.7L6.6001 7.1C7.6401 6.78 10.1001 9.9 11.2001 11.5C10.9334 11.8 10.3201 12.22 10.0001 11.5C9.6801 10.78 8.4001 10 7.8001 9.7Z" fill="#44FBFE"/>
<path d="M6.80006 17.3001C7.12006 16.4201 9.3334 14.8001 10.4001 14.1001C7.80003 17.0001 7.2001 18.8001 6.80006 21.5001C6.20006 20.8001 6.40006 18.4001 6.80006 17.3001Z" fill="#44FBFE"/>
<path d="M20.7002 8L21.9002 6.8L20.2002 10.3L20.7002 8Z" fill="#44FBFE"/>
<path d="M23.9002 5L22.9002 5.3C23.3002 7.06 21.9335 12.3667 21.2002 14.8C21.7669 14.3 23.0202 13.04 23.5002 12C23.9802 10.96 23.9669 6.9 23.9002 5Z" fill="#44FBFE"/>
<path d="M24.7002 16.9C26.1402 15.22 26.2335 10.5333 26.1002 8.4C27.2202 8.72 27.4335 11.7333 27.4002 13.2C27.4002 13.9 26.8602 15.62 24.7002 16.9Z" fill="#44FBFE"/>
<path d="M0 36.1999L10 25.4999L11.3 25.3999L10.4 26.4999L6.5 31.0999L3 34.1999C3.5 34.2666 4.64 34.4199 5.2 34.4999C5.9 34.5999 6.8 35.4999 6.7 36.1999C6.62 36.7599 6.2 37.4332 6 37.6999C6 37.0332 5.9 35.6599 5.5 35.4999C5 35.2999 4.6 35.0999 2.6 35.1999C1 35.2799 1.13333 36.4999 1.4 37.0999C1.76667 37.4999 2.54 38.3599 2.7 38.5999C2.9 38.8999 4.4 39.6999 5.5 39.6999C6.38 39.6999 7.4 39.1666 7.8 38.8999C10.4333 37.3666 15.88 34.1999 16.6 33.7999C17.5 33.2999 19.9 33.4999 20 33.4999C20.08 33.4999 19.9667 34.3666 19.9 34.7999L18.7 36.0999L14.3 39.6999C13.4 40.4332 11.44 41.9199 10.8 41.9999C10.16 42.0799 10.0667 42.3666 10.1 42.4999L11.3 43.4999C11.5 43.5666 11.7 43.6799 10.9 43.5999C10.1 43.5199 9.43333 42.0999 9.2 41.3999L12.7 39.0999C13.8667 38.4332 16.44 36.8199 17.4 35.6999C18.36 34.5799 17 34.8332 16.2 35.0999L13 37.0999C11.8667 37.7999 9.26 39.3599 7.9 39.9999C6.54 40.6399 5.4 40.7999 5 40.7999L6 41.7999L7.3 41.8999C7.8 42.2999 9.02 43.2799 9.9 43.9999C10.78 44.7199 11.4 44.4332 11.6 44.1999C12.1 43.8332 13.82 42.5799 16.7 40.4999C20.6 39.8999 21.9 44.2999 22 45.0999C22.1 45.8999 22 46.5999 21.3 47.6999C21.1 41.2999 17.6 41.6999 16.6 41.8999C16.12 43.0199 12.1333 44.6999 10.2 45.3999L12.2 47.4999H11C10.0333 46.2666 8.04 43.6999 7.8 43.2999C7.5 42.7999 7.5 43.1999 6.5 43.0999C5.7 43.0199 1.2 38.8999 0 36.1999Z" fill="#44FBFE"/>
<path d="M5.88607 22.4407C6.24308 20.6719 7.79743 19.3999 9.6019 19.3999H17.4417C20.7225 19.3999 23.271 22.2584 22.896 25.5176L22.8364 26.0361C22.5357 28.6495 20.24 30.5691 17.6146 30.4024V30.4024C16.5655 30.3358 15.5649 29.9363 14.7584 29.262L12.5178 27.3888C11.1079 26.2099 8.99174 26.4863 7.93187 27.9878L7.71137 28.3002C7.57227 28.4972 7.38883 28.6589 7.17582 28.772V28.772C6.02756 29.382 4.68687 28.3821 4.94412 27.1076L5.88607 22.4407Z" fill="#46F6F9"/>
<path d="M6.24443 22.7383C6.5725 21.2556 7.88699 20.2002 9.40555 20.2002H17.2058C19.9628 20.2002 22.0949 22.6181 21.7499 25.3534V25.3534C21.4484 27.7438 19.305 29.4896 16.8996 29.3503V29.3503C15.9763 29.2968 15.0763 28.9678 14.3409 28.4069L12.2066 26.7792C10.9337 25.8084 9.11596 26.0466 8.13626 27.3127L7.9204 27.5917C7.78723 27.7637 7.61605 27.9027 7.42024 27.9976V27.9976C6.3598 28.5115 5.17431 27.5749 5.42888 26.4243L6.24443 22.7383Z" fill="black"/>
<circle cx="17.2001" cy="23.8002" r="0.6" fill="#FF0000"/>
<circle cx="14.9999" cy="23.8002" r="0.6" fill="#FF0000"/>
<circle cx="12.8002" cy="23.8002" r="0.6" fill="#FF0000"/>
<circle cx="10.6" cy="23.8002" r="0.6" fill="#FF0000"/>
<circle cx="8.39981" cy="23.8002" r="0.6" fill="#FF0000"/>
</svg>
